<svg width="93" height="6" viewBox="0 0 93 6" fill="none" xmlns="http://www.w3.org/2000/svg">
<path d="M21.295 2.61297L21.1746 2.12901L21.5358 2.03282L21.8961 2.03282L21.8961 2.22595C21.7757 2.51603 21.5358 2.61297 21.295 2.61297ZM38.7397 3.48397L38.8601 2.90381L38.258 2.90381L38.258 3.48397L38.7397 3.48397ZM32.9646 3.38702L32.9646 3L32.8442 3L32.7238 3.38702L32.9646 3.38702ZM27.0691 3.7748C26.9497 3.48397 26.8292 3.29083 26.5884 3.29083L26.468 3.7748L27.0691 3.7748ZM37.2957 4.35496L37.2957 3.48397L36.8149 3.38702C36.8149 3.58091 36.6945 3.7748 36.5741 4.06488L36.9344 4.25802L37.2957 4.35496ZM23.3401 3.96794L23.3401 3.48397L23.2197 3.48397L23.0993 3.96794L23.3401 3.96794ZM24.7841 4.06488L24.7841 3.67786L24.3025 3.58092L24.3025 3.96794L24.7841 4.06488ZM18.0467 4.06488L18.0467 3.67786L17.9263 3.67786L17.8059 4.06488L18.0467 4.06488ZM21.1746 4.93587L20.693 4.64579C20.3326 4.83893 20.0918 4.83893 19.9714 4.83893C19.6102 4.74198 19.3703 4.64579 19.2499 4.54885C19.2499 4.74199 19.1295 4.83893 19.0091 4.83893C18.8886 4.25802 18.6478 3.67786 18.407 3.29083C18.5274 2.90381 18.8886 2.61298 19.7306 2.3229C19.851 2.90381 20.0918 3.19389 20.3326 3.19389C21.8961 2.41984 22.9789 2.03282 23.8208 2.12901C23.8208 2.22596 23.8208 2.61297 23.9412 3.38702L24.0617 3.38702C24.1821 2.80686 24.5433 2.3229 25.5057 1.74199L25.6261 1.74199C25.6261 2.51604 25.7465 2.80687 26.1068 2.80687C26.1068 2.41984 26.2272 2.22595 26.3476 2.22595L27.0691 2.22595C27.1896 1.4519 27.4304 0.967935 27.912 1.06488C28.0324 1.16107 28.1519 1.74199 28.0324 2.51603C28.3927 2.51603 28.5131 2.22595 28.6336 1.54885L29.8367 1.74199C29.8367 1.45191 29.9571 1.35496 30.3174 1.35496L31.1603 2.03282L31.4002 2.12901C31.5206 1.45191 31.7614 0.967936 32.483 0.870992L32.7238 1.25802L33.927 1.16108L34.1678 1.16108C34.1678 1.45191 33.927 1.54885 33.4463 1.54885C33.3258 1.74199 33.6861 2.03282 34.2882 2.41984C34.6485 2.12901 34.7689 1.83893 34.8893 1.64504L34.8893 0.967939L35.6118 0.387029L37.2957 0.677854C37.2957 0.387023 38.0172 0.193888 39.3408 0.0969441L39.702 0.387028C42.4687 0.0969483 44.0331 4.28082e-06 44.5138 4.2388e-06L44.5138 0.19389L44.9954 4.19669e-06L45.4761 0.0969436C45.8374 0.0969435 46.1986 0.193886 46.4394 0.29083C46.6793 0.193886 47.7621 0.0969434 49.8081 0.0969432L50.2889 0.290829C50.6501 0.193885 50.8909 0.0969431 51.0104 0.0969431L51.0104 0.290829C51.3716 0.193885 52.4544 0.096943 54.1392 0.0969428C54.3791 0.0969428 54.6199 0.193885 54.6199 0.290829L57.0263 0.193889L61.3573 0.483966C61.4777 0.483966 61.4777 0.580908 61.4777 0.677852C61.838 0.580908 62.0789 0.483969 62.1993 0.580913L63.6433 0.87099C63.7637 0.87099 64.0036 0.774044 64.3648 0.677852C65.6884 0.870988 66.7712 0.967932 67.7335 1.06488L69.6582 1.16107C69.7786 1.16107 69.899 1.16107 69.7786 1.35496C70.0195 1.35496 70.1399 1.35496 70.1399 1.16107L71.7033 1.4519L73.629 1.54885C86.6222 2.80686 93.1188 4.25801 92.9984 5.80685C92.8779 5.80685 92.7575 5.9038 92.7575 5.99999C89.7501 5.70991 87.7049 5.41984 86.7417 5.32289L86.2609 5.41983C86.1405 5.41983 86.0201 5.41983 86.0201 5.22594L84.8169 5.41983L84.3362 5.32289C84.2158 5.32289 84.0954 5.22595 84.0954 5.12901L83.7342 5.32289L82.531 5.03281C82.1707 5.129 81.9299 5.22595 81.8095 5.22595C81.5686 5.22595 81.5686 5.129 81.5686 4.93587C79.5235 5.03281 78.1999 5.129 77.96 5.22595C77.7192 5.22595 77.7192 5.129 77.7192 4.93587C74.8312 5.12901 73.1473 5.22594 72.9065 5.41983C72.5462 5.22594 72.3054 5.12901 71.9442 5.12901L69.5378 5.12901L68.3346 4.93587C68.0947 5.03281 67.8539 5.129 67.6131 5.03281L67.6131 4.83892L67.1324 5.03281L64.9669 4.93587C64.726 4.93587 64.6056 4.64579 64.6056 4.25801C63.7637 4.83892 63.0412 5.03281 62.3197 5.03281L62.3197 4.83892L61.838 4.93587L59.4326 4.83892L58.2294 5.03281L57.8682 4.35496L56.665 4.93587L54.2587 4.83892C53.4167 4.74198 52.2136 4.74198 50.6501 4.83892C50.6501 4.64579 50.5297 4.54885 50.4093 4.54885C50.2889 4.83893 50.1685 5.03281 49.9276 4.93587L49.5673 4.93587C49.5673 4.93587 49.4469 4.83893 49.4469 4.74198C49.2061 4.74198 49.2061 4.83893 49.2061 4.93587L48.0029 4.64579C47.6426 4.74198 47.4018 4.83892 47.2814 4.83892C47.161 4.54884 47.0406 4.4519 46.7997 4.35496L46.5589 4.35496C46.5589 4.83893 46.4394 5.03282 46.0782 4.93587C45.717 4.93587 45.5966 4.74199 45.5966 4.35496L45.1159 4.35496C45.1159 4.83893 44.3934 5.129 43.1911 5.03281L42.9503 5.03281L42.2279 4.54885C42.1084 4.83893 41.988 4.93587 41.7471 4.93587L39.3408 4.83893L38.6193 4.35496L38.6193 4.83893L37.4161 4.54885C37.4161 4.83893 37.2957 4.93587 36.9344 4.93587L35.9721 4.83893C35.8517 4.83893 35.7313 4.74198 35.7313 4.64579C35.4914 4.74198 34.529 4.83893 32.8442 4.93587L32.7238 4.4519L32.1227 4.64579L32.0023 4.64579L31.5206 4.4519C31.4002 4.74198 31.2807 4.83893 30.9195 4.83893L30.1979 4.74199L29.5959 4.35496C29.4755 4.54885 29.2347 4.74199 28.6336 4.93587C28.6336 4.64579 28.3927 4.4519 27.912 4.25802C27.912 4.64579 27.6712 4.83893 27.31 4.83893L26.7088 4.83893C25.8669 4.74198 24.6637 4.74198 23.0993 4.83893L23.0993 4.54885C22.0165 4.83893 21.4154 4.93587 21.1746 4.93587ZM12.0308 4.4519L12.0308 3.96794L11.3093 3.96794L11.3093 4.35496L12.0308 4.4519ZM3.3687 4.54885L2.64716 4.54885L2.76757 4.35496C2.76757 4.06488 2.88798 3.96794 3.1288 3.96794L3.48911 3.96794C3.72993 3.96794 3.85033 4.16182 3.85033 4.4519L3.3687 4.54885ZM8.1814 4.83893L7.33946 4.35496C7.21906 4.6458 6.97823 4.83893 6.73741 4.83893L4.33106 4.64579L4.33106 4.4519L4.57188 4.06488L5.05351 4.25802L5.41383 4.25802L5.41383 3.87099L5.65465 3.87099C5.77506 3.87099 5.89546 3.96794 5.77506 4.06488L6.37711 3.87099L6.85783 4.16183C6.85783 3.7748 7.33945 3.48397 8.54263 3.38702C8.54263 3.67786 8.66212 3.7748 9.02335 3.87099L10.2265 3.09695L10.4673 3.09695C10.5878 3.09695 10.7082 3.19389 10.7082 3.29083L12.3921 2.51604C12.9932 2.80687 13.3544 3.00001 13.3544 3.19389L13.1136 3.67786L13.5952 3.67786C13.5952 3.09694 13.7156 2.80687 14.0759 2.80687C14.0759 3 14.1964 3.09695 14.3168 3.09695L14.3168 2.61298L15.5199 2.70992L15.5199 3.29083L16.0016 3.38702L16.0016 2.90381L16.4823 2.90381L16.4823 3.38702L16.8435 3.38702L16.9639 2.61298L17.5651 2.61298C18.2875 3.19389 18.6478 3.871 18.5274 4.35496L17.8059 4.74199L16.3619 4.64579L16.4823 3.7748C15.8812 4.54885 15.1587 4.83893 14.1964 4.74199C14.1964 4.83893 14.0759 4.93587 13.9565 4.93587C13.7156 4.83893 13.3544 4.74198 12.9932 4.64579C12.9932 4.64579 12.6329 4.74198 12.0308 4.83893L12.0308 4.64579L11.5501 4.83893L11.0685 4.54885L9.8653 4.74199L9.8653 4.54885C9.14376 4.74199 8.54263 4.83893 8.1814 4.83893ZM0.240815 4.83893L-7.20636e-06 4.83893L0.120407 4.4519L0.240815 4.4519L0.240815 4.83893ZM1.92564 4.93588L1.44399 4.93588L1.56441 4.25802L2.04604 4.35497L1.92564 4.93588Z" fill="#012E0D"/>
</svg>
