<svg width="92" height="74" viewBox="0 0 92 74" fill="none" xmlns="http://www.w3.org/2000/svg">
<path d="M18.7496 2.078C26.3164 0.318953 31.1046 1.49559 34.0184 2.80119C36.9323 4.10678 39.5597 7.91144 32.7625 6.08014C22.7516 3.38303 15.5586 8.50162 12.1746 13.8757C8.79066 19.2499 3.43616 32.8547 15.4972 49.5522C27.5581 66.2497 42.4395 70.5864 51.735 66.5906C61.1235 62.5548 64.8756 45.5113 60.5261 40.42C56.1291 35.2731 58.9024 43.3673 46.2657 45.5804C41.1387 46.4783 33.0087 44.547 28.9198 37.0515C24.8308 29.556 29.2987 23.8963 35.9972 14.9338C45.065 2.80118 58.4597 -1.84133 73.138 2.80119C86.7862 7.11789 90.4177 17.2263 90.4177 27.8332C90.4177 39.4356 80.3987 52.6817 76.0432 55.7328C73.6541 57.4064 71.9181 57.111 73.138 54.8539C74.1291 53.0203 81.1346 45.3616 83.3833 34.1592C84.6299 27.9493 84.3533 15.2711 74.5365 10.0738C63.0938 4.0157 50.3022 6.25608 41.1387 18.0572C33.5478 27.8332 31.5448 31.6376 34.8652 35.5696C38.834 40.2694 44.1273 40.0142 49.0663 37.8082C54.0784 35.5696 56.5496 21.5308 64.8756 36.6889C70.3258 46.6115 67.6699 58.5989 60.5261 66.5906C53.3823 74.5822 37.1276 77.2461 18.7496 62.0601C1.60918 47.8968 0.394569 29.6357 1.8825 21.987C3.37043 14.3383 9.56534 4.21308 18.7496 2.078Z" fill="#012E0D" stroke="#012E0D" stroke-width="1.32595"/>
</svg>
