<svg width="34" height="28" viewBox="0 0 34 28" fill="none" xmlns="http://www.w3.org/2000/svg">
<path d="M0.305227 7.61682C1.49017 3.03411 4.71222 0.167697 9.06482 0C12.9087 0 13.867 1.40618 14.0979 1.8592C14.2401 2.13824 14.5218 3.08899 12.4021 2.50204C10.2823 1.9151 5.73186 2.0269 3.92299 6.47089C2.11411 10.9149 3.01855 15.0794 6.69282 19.8587C10.3671 24.6381 15.3132 25.9238 18.2244 25.4486C21.1355 24.9735 22.5061 22.6682 23.0196 20.3083C23.9307 16.121 22.4074 14.9676 22.04 14.9955C21.6725 15.0235 21.1176 15.9521 20.2131 16.5111C19.3087 17.0701 16.3246 18.4848 13.1151 16.513C9.80769 14.481 9.19911 11.0532 11.7128 8.35813C13.9669 5.94138 16.1407 1.80916 20.2164 0.580454C25.8766 -1.12596 32.0086 1.04538 33.6191 6.98696C34.5436 10.3978 33.7341 14.5686 31.7436 17.429C29.4161 20.7736 28.3389 21.2842 27.9715 20.8929C27.604 20.5016 28.2477 19.9154 29.3201 17.9025C30.5448 15.6039 32.4481 11.8652 31.1197 7.61682C29.7913 3.36848 26.4458 1.63921 22.353 2.41826C18.1443 3.21939 15.8614 7.30556 13.5525 9.98054C12.5659 11.1236 12.5374 12.3613 13.8937 13.6562C14.823 14.5435 17.085 14.8782 18.6956 13.6984C19.7221 12.9464 20.4417 11.1971 21.9552 10.9987C22.9885 10.8633 26.6705 14.4988 25.8556 19.7469C25.0621 24.8568 21.7008 27.5728 17.4895 27.9641C13.2782 28.3554 8.27038 25.4877 5.05352 22.2624C1.52919 18.7288 -0.879787 12.1998 0.305227 7.61682Z" fill="#012E0D"/>
</svg>
