<svg width="68" height="62" viewBox="0 0 68 62" fill="none" xmlns="http://www.w3.org/2000/svg">
<path fill-rule="evenodd" clip-rule="evenodd" d="M33.3477 3.72169C34.3669 3.77533 35.243 2.98861 35.3145 1.96945C35.386 0.950285 34.5814 0.0741639 33.5623 0.00264388C32.5431 -0.0509962 31.667 0.717844 31.5955 1.73701C31.5418 2.77405 32.3286 3.65017 33.3477 3.72169ZM50.7092 3.97204C50.2622 4.65148 49.3682 4.84816 48.6888 4.40116C48.0272 3.95416 47.8305 3.04227 48.2597 2.36283C48.7067 1.70127 49.6007 1.50459 50.2801 1.95159C50.9595 2.39859 51.1562 3.2926 50.7092 3.97204ZM18.0961 4.54409C18.8113 4.18649 19.0974 3.29248 18.7398 2.57728C18.3822 1.86208 17.4882 1.576 16.773 1.9336C16.0578 2.2912 15.7717 3.16733 16.1293 3.88253C16.4869 4.61561 17.363 4.91957 18.0961 4.54409ZM22.6376 35.5124C20.1523 35.3694 18.2391 33.2416 18.3822 30.7563C18.5073 28.3604 20.492 26.483 22.8879 26.483C25.3911 26.4651 27.4116 28.4856 27.4116 30.9888C27.4294 33.492 25.409 35.5124 22.9058 35.5124H22.6376ZM0.00149972 30.9708C0.0372597 30.1662 0.73458 29.5404 1.53918 29.594C2.34378 29.6477 2.96958 30.3271 2.91594 31.1317C2.8623 31.9363 2.18286 32.5621 1.37826 32.5085C0.57366 32.4727 -0.0342603 31.7754 0.00149972 30.9708ZM23.6746 9.51478C24.2289 10.6233 23.7819 11.9822 22.6733 12.5365C21.5648 13.0908 20.2059 12.6438 19.6516 11.5352C19.0973 10.4267 19.5443 9.06778 20.6529 8.5135C21.7615 7.95922 23.1203 8.40622 23.6746 9.51478ZM7.26077 18.0258C8.11901 18.58 9.26334 18.3476 9.8355 17.4894C10.3898 16.6311 10.1573 15.4868 9.2991 14.9146C8.44086 14.3604 7.29653 14.5928 6.72437 15.451C6.15221 16.3093 6.40253 17.4715 7.26077 18.0258ZM7.61837 30.9172C7.68989 29.6656 8.74481 28.718 9.99642 28.7895C11.248 28.861 12.1957 29.9338 12.1241 31.1675C12.0526 32.4191 10.9977 33.3668 9.74609 33.2953C8.49449 33.2237 7.54685 32.1688 7.61837 30.9172ZM7.51111 43.9339C6.59923 44.3987 6.22375 45.5073 6.68863 46.4371C7.15351 47.3489 8.26207 47.7244 9.19183 47.2595C10.1037 46.7947 10.4792 45.6861 10.0143 44.7563C9.54943 43.8445 8.42299 43.469 7.51111 43.9339ZM19.9377 23.3539C19.151 24.5876 17.506 24.9274 16.2723 24.1228C15.0386 23.3182 14.6989 21.6732 15.5035 20.4574C16.2902 19.2236 17.9352 18.8839 19.1689 19.6885C20.4026 20.4752 20.7423 22.1202 19.9377 23.3539ZM44.0757 12.3577C45.1128 13.0371 46.5253 12.751 47.2047 11.714C47.8842 10.677 47.5981 9.26444 46.561 8.585C45.524 7.90556 44.1115 8.19164 43.432 9.22868C42.7347 10.2836 43.0208 11.6782 44.0757 12.3577ZM44.4154 26.4472C41.9301 26.3042 39.7845 28.2173 39.6594 30.7026C39.5163 33.188 41.4295 35.3336 43.9148 35.4587H44.1651C46.6504 35.4587 48.6709 33.4383 48.6709 30.9351C48.6888 28.557 46.8114 26.5724 44.4154 26.4472ZM28.1983 26.2862C26.4818 26.2862 24.9262 25.3207 24.1574 23.8009C23.031 21.5837 23.925 18.866 26.16 17.7217C28.3771 16.5952 31.0948 17.4892 32.2213 19.7242C32.5431 20.3679 32.704 21.0652 32.704 21.7625C32.704 24.2657 30.6836 26.2862 28.1983 26.2862ZM59.5419 18.0257C60.4538 17.5608 60.8114 16.4343 60.3465 15.5225C59.8816 14.6106 58.7552 14.253 57.8433 14.7179C56.9314 15.1827 56.5738 16.2913 57.0208 17.2032C57.5036 18.1151 58.6122 18.4905 59.5419 18.0257ZM46.9187 23.0142C46.2571 21.709 46.7935 20.1177 48.0987 19.4561C49.404 18.8124 50.9953 19.3309 51.6569 20.6362C52.3184 21.9414 51.782 23.5327 50.4768 24.1943C49.1715 24.8559 47.5802 24.3195 46.9187 23.0142ZM36.1191 12.8941C36.0476 14.3602 34.796 15.4867 33.3298 15.3973C31.8637 15.3258 30.7551 14.0742 30.8266 12.608C30.8982 11.1418 32.1498 10.0154 33.6159 10.1048C35.0821 10.1763 36.2085 11.4279 36.1191 12.8941ZM18.9543 42.5034C20.2595 41.8419 20.7959 40.2506 20.1344 38.9453C19.4728 37.6401 17.8815 37.1037 16.5763 37.7652C15.271 38.4268 14.7346 40.0181 15.3962 41.3234C16.0577 42.6286 17.6491 43.165 18.9543 42.5034ZM36.3516 25.5175C34.2596 24.1586 33.6874 21.3693 35.0463 19.2773C35.8867 18.0079 37.2992 17.239 38.819 17.239C39.6951 17.239 40.5534 17.4893 41.2864 17.9721C43.3784 19.331 43.9506 22.1203 42.5917 24.2122C41.2328 26.3042 38.4435 26.8763 36.3516 25.5175ZM42.8956 38.1585C41.7692 35.9235 39.0514 35.0295 36.8343 36.156C34.5993 37.2824 33.7053 40.0002 34.8318 42.2173C35.9582 44.4523 38.676 45.3463 40.8931 44.2199C43.1102 43.1113 44.0221 40.4293 42.9135 38.1943C42.9135 38.1764 42.9135 38.1764 42.8956 38.1585ZM47.1153 38.6056C47.902 37.3719 49.547 37.0322 50.7807 37.8368C52.0144 38.6414 52.3542 40.2863 51.5496 41.5022C50.7628 42.7359 49.1179 43.0756 47.8842 42.271C46.6504 41.4843 46.3107 39.8393 47.1153 38.6056ZM59.4346 31.0602C59.5062 29.8086 58.5585 28.7536 57.3069 28.6821C56.0553 28.6106 55.0004 29.5582 54.9289 30.8098C54.8574 32.0614 55.805 33.1164 57.0566 33.1879C58.2903 33.2594 59.3631 32.2939 59.4346 31.0602ZM64.1371 30.8278C64.1729 30.0232 64.8702 29.3974 65.6748 29.4511C66.4794 29.5047 67.0873 30.1842 67.0515 30.9888C66.9979 31.7934 66.3185 32.4192 65.5139 32.3655C64.7093 32.3298 64.1013 31.6324 64.1371 30.8278ZM59.7923 43.9339C58.934 43.3796 57.7897 43.6121 57.2175 44.4703C56.6633 45.3286 56.8957 46.4729 57.7539 47.045C58.6122 47.5993 59.7565 47.3669 60.3287 46.5086C60.9008 45.6504 60.6505 44.4882 59.7923 43.9339ZM16.3259 57.9697C16.7729 57.3081 17.6669 57.1114 18.3464 57.5584C19.0258 58.0054 19.2225 58.9173 18.7576 59.5789C18.3106 60.2404 17.4166 60.4371 16.7372 59.9901C16.0756 59.5431 15.8789 58.6491 16.3259 57.9697ZM48.957 57.4154C48.2418 57.773 47.9557 58.667 48.3133 59.3822C48.6709 60.0974 49.5649 60.3835 50.2801 60.0259C50.9953 59.6683 51.2814 58.7921 50.9238 58.0769C50.5662 57.3438 49.69 57.0399 48.957 57.4154ZM30.7015 36.4242C32.7935 37.801 33.3656 40.5903 32.0067 42.6822C31.1664 43.9696 29.7539 44.7384 28.2162 44.7206C27.34 44.7206 26.4818 44.4702 25.7487 43.9875C23.6568 42.6107 23.0667 39.8214 24.4435 37.7295C25.8202 35.6375 28.6095 35.0653 30.7015 36.4242ZM22.9773 49.6018C21.9403 48.9223 20.5278 49.2084 19.8483 50.2455C19.1689 51.2825 19.455 52.695 20.492 53.3745C21.529 54.0539 22.9416 53.7678 23.621 52.7308C24.3183 51.6937 24.0322 50.2812 22.9773 49.6018ZM31.5418 59.99C31.6134 58.9709 32.4895 58.1842 33.5086 58.2378C34.5278 58.3093 35.3145 59.1854 35.2609 60.2225C35.1894 61.2416 34.3132 62.0105 33.2941 61.9568C32.2749 61.8853 31.4703 61.0092 31.5418 59.99ZM33.5265 46.5621C32.0604 46.4727 30.8088 47.5992 30.7372 49.0653C30.6478 50.5315 31.7743 51.7831 33.2404 51.8546C34.7066 51.9261 35.9582 50.8176 36.0297 49.3514C36.1191 47.9031 34.9927 46.6337 33.5265 46.5621ZM43.3963 52.4626C42.8241 51.354 43.2711 49.9951 44.3797 49.423C45.5061 48.8508 46.865 49.3157 47.4372 50.4243C47.9914 51.5328 47.5444 52.8917 46.4359 53.446C45.3273 54.0181 43.9684 53.5711 43.3963 52.4626Z" fill="#012E0D"/>
</svg>
