<svg width="74" height="65" viewBox="0 0 74 65" fill="none" xmlns="http://www.w3.org/2000/svg">
<path fill-rule="evenodd" clip-rule="evenodd" d="M64.4516 6.7378V6.73357C64.4539 5.20326 65.6999 3.96341 67.2365 3.96341C68.7746 3.96341 70.0215 5.20555 70.0215 6.7378C70.0215 8.27006 68.7746 9.5122 67.2365 9.5122C65.6999 9.5122 64.4539 8.27235 64.4516 6.74205V6.7378ZM54.5054 8.71952H60.7704C61.6199 11.4736 64.1935 13.4756 67.2365 13.4756C70.9719 13.4756 74 10.459 74 6.7378C74 3.01662 70.9719 0 67.2365 0C64.1935 0 61.6198 2.00205 60.7704 4.7561H54.5054C41.1935 4.7561 30.0946 14.1954 27.5852 26.7218C25.5599 27.1945 23.9069 28.6307 23.14 30.5185H13.0936C12.1288 27.9708 9.65853 26.1586 6.76344 26.1586C3.0281 26.1586 0 29.1753 0 32.8965C0 36.6176 3.0281 39.6343 6.76344 39.6343C9.9506 39.6343 12.6229 37.4381 13.3386 34.4819H22.8781C23.4806 36.8133 25.3806 38.6258 27.7654 39.1099C30.5897 51.22 41.4897 60.2439 54.5054 60.2439H59.179C60.0284 62.998 62.6021 65 65.6451 65C69.3805 65 72.4086 61.9834 72.4086 58.2622C72.4086 54.541 69.3805 51.5244 65.6451 51.5244C62.6021 51.5244 60.0285 53.5265 59.179 56.2805H54.5054C43.5307 56.2805 34.3151 48.7774 31.7454 38.6395C33.4432 37.8453 34.7314 36.3259 35.208 34.4819H38.3925C39.4911 34.4819 40.3817 33.5947 40.3817 32.5002C40.3817 31.4058 39.4911 30.5185 38.3925 30.5185H35.0108C34.9893 30.5185 34.9678 30.5189 34.9465 30.5195C34.3205 28.978 33.1038 27.7375 31.576 27.0766C33.8847 16.5779 43.2738 8.71952 54.5054 8.71952ZM62.8602 58.2699L62.8602 58.2622L62.8602 58.2545C62.8644 56.7258 64.1096 55.4878 65.6451 55.4878C67.1832 55.4878 68.4301 56.73 68.4301 58.2622C68.4301 59.7945 67.1832 61.0366 65.6451 61.0366C64.1096 61.0366 62.8644 59.7986 62.8602 58.2699ZM3.97849 32.8965C3.97849 31.3642 5.22536 30.1221 6.76344 30.1221C8.30152 30.1221 9.54839 31.3642 9.54839 32.8965C9.54839 34.4287 8.30152 35.6708 6.76344 35.6708C5.22536 35.6708 3.97849 34.4287 3.97849 32.8965ZM55.3011 30.1221C53.763 30.1221 52.5161 31.3642 52.5161 32.8965C52.5161 34.4287 53.763 35.6709 55.3011 35.6709C56.8392 35.6709 58.086 34.4287 58.086 32.8965C58.086 31.3642 56.8392 30.1221 55.3011 30.1221ZM48.9546 30.5621C49.9077 27.9915 52.3895 26.1587 55.3011 26.1587C59.0364 26.1587 62.0645 29.1753 62.0645 32.8965C62.0645 36.6177 59.0364 39.6343 55.3011 39.6343C52.1108 39.6343 49.4365 37.4339 48.7239 34.4734C48.6626 34.479 48.6004 34.4819 48.5376 34.4819H45.1559C44.0573 34.4819 43.1667 33.5947 43.1667 32.5002C43.1667 31.4058 44.0573 30.5185 45.1559 30.5185H48.5376C48.6806 30.5185 48.8201 30.5336 48.9546 30.5621Z" fill="#012E0D"/>
</svg>
