<svg width="103" height="65" viewBox="0 0 103 65" fill="none" xmlns="http://www.w3.org/2000/svg">
<g clip-path="url(#clip0_448_1435)">
<path fill-rule="evenodd" clip-rule="evenodd" d="M32.1106 0C14.3746 0 0 14.5551 0 32.5138C0 50.4725 14.3746 65.0277 32.1106 65.0277C37.1681 65.0277 41.9522 63.8442 46.2077 61.7357L48.9448 47.5393L43.1512 55.813L42.2767 55.2043L48.6169 46.1557L39.8445 48.6185L39.5712 47.5946L48.7809 45.0212L41.1016 38.8782L41.7575 38.048L48.7809 43.6653L32.7392 0.0275879C33.1218 0.0275879 33.5044 0.0275879 33.887 0.0552592L49.792 43.3056L55.9682 10.7641C56.2688 11.0961 56.5694 11.4282 56.8427 11.7879L50.9398 42.9459L56.1595 35.4746L57.034 36.0834L51.2404 44.3571L59.6848 42.005L59.9581 43.0289L51.1038 45.5193L58.3257 51.2963C62.0389 45.992 64.2213 39.5113 64.2213 32.5138C64.2213 14.5551 49.8466 0 32.1106 0ZM53.5713 56.7012C51.7176 58.3886 49.6688 59.8606 47.4634 61.0784L50.0926 47.2072L53.5713 56.7012ZM57.708 52.149C56.7161 53.4728 55.6263 54.7173 54.4495 55.8714L51.1038 46.8752L57.708 52.149ZM37.1117 30.0234C36.8931 30.7706 36.3738 31.158 35.4447 31.158C34.4882 31.158 33.8323 30.6599 33.8323 29.387V25.5684H35.2261V29.0549C35.2261 29.7467 35.472 30.1065 36.0459 30.1065C36.5925 30.1065 37.1117 29.636 37.1117 28.5845V25.5684H38.5054V31.0473H37.303L37.1117 30.0234ZM34.4882 24.5999V23.4653H37.7949V24.5999H34.4882ZM7.81587 29.3871L6.75007 27.5055C6.36748 26.869 6.23083 26.3986 6.23083 26.3986H6.17618C6.17618 26.3986 6.23083 26.8137 6.23083 27.6162V31.0197H4.80977V24.0742H6.31282L7.70656 26.703C8.06182 27.3394 8.14381 27.6715 8.14381 27.6715H8.19847C8.19847 27.6715 8.28045 27.3394 8.63572 26.703L10.0568 24.0742H11.5052V31.0474H10.0841V27.6438C10.0841 26.8414 10.1661 26.4263 10.1661 26.4263H10.1114C10.1114 26.4263 9.94747 26.8967 9.5922 27.5331L8.52641 29.4148H7.81587V29.3871ZM16.9708 29.4976C16.9708 29.885 17.1348 29.9957 17.3807 29.9957C17.5174 29.9957 17.5994 29.968 17.7087 29.9127V30.9642C17.5174 31.0749 17.2441 31.1302 16.9162 31.1302C16.2603 31.1302 15.823 30.8812 15.6864 30.2724C15.4404 30.9365 14.8119 31.1856 14.1013 31.1856C13.1449 31.1856 12.489 30.6321 12.489 29.6913C12.489 28.4738 13.4455 27.8097 15.5497 27.9204V27.3393C15.5497 26.8135 15.3038 26.5091 14.8119 26.5091C14.32 26.5091 14.074 26.8135 14.0194 27.3393L12.653 27.0902C12.7349 25.928 13.7188 25.4299 14.8665 25.4299C16.0963 25.4299 16.9162 25.9557 16.9162 27.2009V29.4976H16.9708ZM15.5771 28.6951C14.3473 28.6675 13.8827 28.9719 13.8827 29.5253C13.8827 29.885 14.1287 30.1617 14.5659 30.1617C15.0305 30.1617 15.5497 29.9127 15.5497 29.3316V28.6951H15.5771ZM21.4253 25.4299C20.6055 25.4299 20.0042 25.7897 19.7036 26.6198L19.5397 25.5683H18.3645V31.0195H19.7583V27.9757C19.7583 26.9242 20.2775 26.6198 20.8514 26.6198C21.4253 26.6198 21.6439 27.0072 21.6439 27.6436V31.0195H23.0377V27.1456C23.0377 25.928 22.2725 25.4299 21.4253 25.4299ZM28.4213 29.4976C28.4213 29.885 28.5853 29.9957 28.8312 29.9957C28.9679 29.9957 29.0499 29.968 29.1592 29.9127V30.9642C28.9679 31.0749 28.6946 31.1302 28.3667 31.1302C27.7108 31.1302 27.2735 30.8812 27.1369 30.2724C26.8909 30.9365 26.2624 31.1856 25.5519 31.1856C24.5954 31.1856 23.9395 30.6321 23.9395 29.6913C23.9395 28.4738 24.896 27.8097 27.0003 27.9204V27.3393C27.0003 26.8135 26.7543 26.5091 26.2624 26.5091C25.7705 26.5091 25.5245 26.8135 25.4699 27.3393L24.1035 27.0902C24.1855 25.928 25.1693 25.4299 26.3171 25.4299C27.5468 25.4299 28.3667 25.9557 28.3667 27.2009V29.4976H28.4213ZM27.0276 28.6951C25.8251 28.6675 25.3332 28.9719 25.3332 29.5253C25.3332 29.885 25.5792 30.1617 26.0164 30.1617C26.481 30.1617 27.0003 29.9127 27.0003 29.3316V28.6951H27.0276ZM31.7007 31.1581C32.2746 31.1581 32.8212 31.0474 33.2311 30.826L33.0125 29.6638C32.7119 29.8852 32.4113 29.9959 32.0833 29.9959C31.6461 29.9959 31.4001 29.7745 31.4001 29.1934V26.6753H33.0125V25.5685H31.4001V24.2402L30.0064 24.4063V25.5685H29.2139V26.6753H30.0064V29.4701C30.0064 30.66 30.6622 31.1581 31.7007 31.1581ZM6.23083 34.5062V40.2342H7.62457V34.5062H9.56487V33.261H4.31786V34.5062H6.23083ZM13.8007 38.6846C13.8007 39.0719 13.9647 39.1826 14.2107 39.1826C14.3473 39.1826 14.4293 39.155 14.5386 39.0996V40.1511C14.3473 40.2618 14.074 40.3172 13.7461 40.3172C13.0902 40.3172 12.653 40.0681 12.5163 39.4594C12.2704 40.1235 11.6418 40.3725 10.9313 40.3725C9.9748 40.3725 9.31892 39.8191 9.31892 38.8783C9.31892 37.6607 10.2754 36.9966 12.3797 37.1073V36.5262C12.3797 36.0004 12.1337 35.7237 11.6418 35.7237C11.1499 35.7237 10.904 36.0281 10.8493 36.5539L9.48289 36.3048C9.56488 35.1426 10.5487 34.6445 11.6965 34.6445C12.9262 34.6445 13.7461 35.1703 13.7461 36.4155V38.6846H13.8007ZM12.407 37.9098C11.2046 37.8821 10.7127 38.1865 10.7127 38.7399C10.7127 39.0996 10.9586 39.3763 11.3959 39.3763C11.8604 39.3763 12.3797 39.1273 12.3797 38.5462V37.9098H12.407ZM17.4901 34.6169C15.9323 34.6169 14.9212 35.6131 14.9212 37.4671C14.9212 39.3211 15.9323 40.3726 17.4901 40.3726C19.0478 40.3726 20.0589 39.3211 20.0589 37.4671C20.0589 35.5854 19.0204 34.6169 17.4901 34.6169ZM17.4627 39.2934C16.6702 39.2934 16.2876 38.7123 16.2876 37.4948C16.2876 36.3049 16.6975 35.7791 17.4627 35.7791C18.2552 35.7791 18.6652 36.3326 18.6652 37.4948C18.6652 38.7123 18.2826 39.2934 17.4627 39.2934ZM22.2998 35.8068C22.6004 34.9767 23.2016 34.6169 24.0215 34.6169C24.8687 34.6169 25.6338 35.115 25.6338 36.3326V40.2066H24.2401V36.8307C24.2401 36.1942 24.0215 35.8068 23.4476 35.8068C22.8737 35.8068 22.3545 36.1112 22.3545 37.1627V40.2066H20.9607V34.7276H22.1358L22.2998 35.8068ZM30.8809 34.1741C30.7989 34.5891 30.7169 34.7828 30.4709 35.0042C30.061 34.7552 29.5418 34.6445 28.9679 34.6445C27.5742 34.6445 26.645 35.3363 26.645 36.5815C26.645 37.4393 27.0276 37.9374 27.7381 38.2418C27.1096 38.4078 26.8636 38.8505 26.8636 39.2656C26.8636 39.736 27.1642 40.1511 27.6835 40.2064C26.727 40.2618 26.2624 40.6768 26.2624 41.341C26.2624 42.3925 27.4375 42.7245 28.7219 42.7245C30.225 42.7245 31.7827 42.3371 31.7827 40.8152C31.7827 39.8467 31.0995 39.2379 29.8697 39.2379H28.4213C28.0934 39.2379 27.9294 39.0996 27.9294 38.8505C27.9294 38.6568 28.0114 38.4908 28.23 38.3524C28.3393 38.4078 28.64 38.4355 28.8859 38.4355C30.225 38.4355 31.2908 37.8267 31.2908 36.5538C31.2908 36.1941 31.2088 35.8344 31.0448 35.5853C31.5094 35.447 31.9467 35.0872 32.0013 34.5615L30.8809 34.1741ZM30.4709 41.0366C30.4709 41.5623 29.9517 41.756 28.8586 41.756C28.0387 41.756 27.5195 41.5623 27.5468 41.0642C27.5468 40.6768 27.9021 40.4831 28.4487 40.4831H29.7331C30.2797 40.4831 30.4709 40.6768 30.4709 41.0366ZM29.8697 36.5538C29.8697 37.1626 29.5145 37.4946 28.9132 37.4946C28.312 37.4946 28.0114 37.1072 27.9841 36.5538C27.9841 35.945 28.312 35.613 28.9132 35.613C29.5145 35.5853 29.8697 35.9174 29.8697 36.5538ZM36.5105 38.6846C36.5105 39.0719 36.6745 39.1826 36.9204 39.1826C37.057 39.1826 37.139 39.155 37.2483 39.0996V40.1511C37.057 40.2618 36.7838 40.3172 36.4558 40.3172C35.7999 40.3172 35.3627 40.0681 35.2261 39.4594C34.9801 40.1235 34.3516 40.3725 33.641 40.3725C32.6845 40.3725 32.0287 39.8191 32.0287 38.8783C32.0287 37.6607 32.9851 36.9966 35.0894 37.1073V36.5262C35.0894 36.0004 34.8435 35.7237 34.3516 35.7237C33.8596 35.7237 33.6137 36.0281 33.559 36.5539L32.1926 36.3048C32.2746 35.1426 33.2584 34.6445 34.4062 34.6445C35.636 34.6445 36.4558 35.1703 36.4558 36.4155V38.6846H36.5105ZM35.1167 37.9098C33.9143 37.8821 33.4224 38.1865 33.4224 38.7399C33.4224 39.0996 33.6684 39.3763 34.1056 39.3763C34.5702 39.3763 35.0894 39.1273 35.0894 38.5462V37.9098H35.1167Z" fill="#012E0D"/>
<path d="M71.19 25.5683L70.1515 23.576C69.8509 22.9672 69.7689 22.6628 69.7689 22.6628H69.7416C69.7416 22.6628 69.7962 22.9949 69.7962 23.6037V26.8689H69.113V21.6943H69.9602L71.2446 24.3231C71.4086 24.6828 71.4632 24.9042 71.4632 24.9042H71.4906C71.4906 24.9042 71.5452 24.6828 71.7092 24.3231L72.9936 21.6943H73.7861V26.8689H73.1029V23.6037C73.1029 22.9672 73.1576 22.6628 73.1576 22.6628H73.1303C73.1303 22.6628 73.0483 22.9672 72.7477 23.576L71.7092 25.5683H71.19Z" fill="#012E0D"/>
<path d="M75.3439 21.0024C75.6171 21.0024 75.8358 21.2238 75.8358 21.5005C75.8358 21.7496 75.6171 21.9709 75.3439 21.9709C75.0979 21.9709 74.8793 21.7496 74.8793 21.5005C74.8793 21.1961 75.0706 21.0024 75.3439 21.0024ZM75.6718 22.8011V26.8688H75.0159V22.8011H75.6718Z" fill="#012E0D"/>
<path d="M77.3661 23.5759C77.5848 22.9671 78.0493 22.6904 78.6506 22.6904C79.3338 22.6904 79.8803 23.0502 79.8803 23.9356V26.8411H79.2518V24.1017C79.2518 23.5759 78.9785 23.2715 78.4866 23.2715C77.9674 23.2715 77.4755 23.5482 77.4755 24.4891V26.8688H76.7923V22.8011H77.2842L77.3661 23.5759Z" fill="#012E0D"/>
<path d="M81.3014 21.0024C81.5747 21.0024 81.7933 21.2238 81.7933 21.5005C81.7933 21.7496 81.5747 21.9709 81.3014 21.9709C81.0555 21.9709 80.8368 21.7496 80.8368 21.5005C80.8368 21.1961 81.0555 21.0024 81.3014 21.0024ZM81.6567 22.8011V26.8688H81.0008V22.8011H81.6567Z" fill="#012E0D"/>
<path d="M82.9958 25.8174C83.0504 26.2878 83.3783 26.5092 83.8976 26.5092C84.3895 26.5092 84.7721 26.3155 84.7721 25.9004C84.7721 25.5407 84.6354 25.3193 84.1162 25.2086L83.515 25.0702C82.7771 24.9042 82.5038 24.5168 82.5038 23.9357C82.5038 23.0502 83.2144 22.7458 83.9522 22.7458C84.7721 22.7458 85.264 23.0502 85.346 23.825L84.6901 23.908C84.6628 23.4653 84.3895 23.2716 83.8976 23.2716C83.4057 23.2716 83.1051 23.493 83.1051 23.8804C83.1051 24.1848 83.2144 24.4061 83.7063 24.5168L84.2528 24.6552C84.9361 24.8212 85.346 25.1256 85.346 25.845C85.346 26.7029 84.6901 27.0072 83.8429 27.0072C82.9684 27.0072 82.4492 26.7305 82.3399 25.9834L82.9958 25.8174Z" fill="#012E0D"/>
<path d="M88.2701 26.7581C88.0241 26.8965 87.7235 26.9795 87.3956 26.9795C86.6851 26.9795 86.3025 26.5921 86.3025 25.9003V23.3545H85.7286V22.8288H86.3025V21.971L86.9857 21.8879V22.8288H88.1881V23.3545H86.9857V25.7896C86.9857 26.2323 87.177 26.426 87.5322 26.426C87.8055 26.426 87.9695 26.3707 88.1881 26.2047L88.2701 26.7581Z" fill="#012E0D"/>
<path d="M68.4845 30.7982V30.2724H69.0584V29.7744C69.0584 28.7505 69.7142 28.4185 70.3701 28.4185C70.6707 28.4185 70.944 28.5015 71.1626 28.5845L71.026 29.1656C70.8074 29.0549 70.6434 28.9996 70.3975 28.9996C69.9875 28.9996 69.7416 29.2209 69.7416 29.8297V30.3001H70.78V30.8259H69.7416V34.3678H69.0857V30.8259H68.4845V30.7982Z" fill="#012E0D"/>
<path d="M70.9167 32.2922C70.9167 30.9087 71.6272 30.1892 72.7204 30.1892C73.8135 30.1892 74.524 30.9087 74.524 32.2922C74.524 33.6758 73.8135 34.4506 72.7204 34.4506C71.6272 34.4506 70.9167 33.6758 70.9167 32.2922ZM71.5726 32.2922C71.5726 33.3714 71.9552 33.9248 72.7204 33.9248C73.4855 33.9248 73.8681 33.3714 73.8681 32.2922C73.8681 31.2407 73.4855 30.7426 72.7204 30.7426C71.9552 30.7426 71.5726 31.213 71.5726 32.2922Z" fill="#012E0D"/>
<path d="M77.4481 30.9365C77.3661 30.9089 77.2295 30.9089 77.1202 30.9089C76.519 30.9089 75.9724 31.4346 75.9724 32.2094V34.3401H75.3165V30.2724H75.8631L75.9451 31.3516C76.109 30.6322 76.6283 30.1341 77.4755 30.1617L77.4481 30.9365Z" fill="#012E0D"/>
<path d="M83.7336 33.3991C83.269 34.1185 82.6951 34.4506 81.7113 34.4506C80.3996 34.4506 79.4977 33.5098 79.4977 31.7665C79.4977 30.0232 80.4816 29.0547 81.848 29.0547C82.7225 29.0547 83.3783 29.4421 83.7063 30.2722L83.0777 30.5766C82.8591 29.9402 82.3672 29.6358 81.766 29.6358C80.7548 29.6358 80.1809 30.4659 80.1809 31.7665C80.1809 33.067 80.7002 33.8418 81.7113 33.8418C82.3945 33.8418 82.8045 33.5928 83.2144 33.0117L83.7336 33.3991Z" fill="#012E0D"/>
<path d="M86.849 33.6207C86.6304 34.2295 86.2205 34.4508 85.6193 34.4508C84.8814 34.4508 84.3895 34.0634 84.3895 33.0949V30.2725H85.0454V33.0396C85.0454 33.676 85.2913 33.9527 85.8106 33.9527C86.2751 33.9527 86.8217 33.5377 86.8217 32.7352V30.2725H87.4776V34.3401H86.9037L86.849 33.6207Z" fill="#012E0D"/>
<path d="M89.8551 34.34C89.6638 34.3954 89.5545 34.3954 89.4179 34.3954C88.926 34.3954 88.5707 34.1187 88.5707 33.5652V28.446H89.2266V33.4546C89.2266 33.7036 89.3632 33.8143 89.5818 33.8143C89.6912 33.8143 89.7731 33.7866 89.8551 33.7589V34.34Z" fill="#012E0D"/>
<path d="M92.6426 34.2293C92.3967 34.3676 92.096 34.4507 91.7681 34.4507C91.0576 34.4507 90.675 34.0633 90.675 33.3715V30.8257H90.1011V30.3H90.675V29.4421L91.3582 29.3591V30.3H92.5606V30.8257H91.3582V33.2608C91.3582 33.7035 91.5495 33.8972 91.9047 33.8972C92.178 33.8972 92.342 33.8419 92.5606 33.6759L92.6426 34.2293Z" fill="#012E0D"/>
<path d="M95.6487 33.6207C95.4301 34.2295 95.0202 34.4508 94.4189 34.4508C93.6811 34.4508 93.1892 34.0634 93.1892 33.0949V30.2725H93.8451V33.0396C93.8451 33.676 94.091 33.9527 94.6102 33.9527C95.0748 33.9527 95.6214 33.5377 95.6214 32.7352V30.2725H96.2773V34.3401H95.7034L95.6487 33.6207Z" fill="#012E0D"/>
<path d="M99.4473 30.9365C99.3653 30.9089 99.2287 30.9089 99.1194 30.9089C98.5182 30.9089 97.9716 31.4346 97.9716 32.2094V34.3401H97.3157V30.2724H97.8623L97.9443 31.3516C98.1082 30.6322 98.6275 30.1341 99.4747 30.1617L99.4473 30.9365Z" fill="#012E0D"/>
<path d="M102.399 33.2054L102.973 33.3437C102.836 34.1739 102.153 34.4506 101.388 34.4506C100.349 34.4506 99.6386 33.7035 99.6386 32.3476C99.6386 30.9917 100.349 30.1892 101.442 30.1892C102.453 30.1892 103 30.9087 103 31.9048C103 32.1539 102.973 32.3752 102.918 32.4583H100.295C100.349 33.3161 100.732 33.9248 101.442 33.9248C101.934 33.9248 102.262 33.7035 102.399 33.2054ZM102.344 31.9048C102.344 31.8218 102.344 31.7941 102.344 31.7111C102.344 31.1577 101.962 30.6873 101.388 30.6873C100.759 30.6873 100.377 31.1024 100.295 31.9048H102.344Z" fill="#012E0D"/>
<path d="M72.5291 41.922L71.8732 41.2303C71.4359 41.7007 70.8347 41.922 70.1788 41.922C69.2223 41.922 68.5665 41.4793 68.5665 40.5385C68.5665 39.8467 68.9217 39.3209 69.7143 38.9889L69.523 38.7675C69.3043 38.5461 69.0311 38.1864 69.0311 37.6883C69.0311 36.9689 69.5503 36.5261 70.3428 36.5261C71.1626 36.5261 71.6819 36.9965 71.6819 37.6883C71.6819 38.3248 71.4359 38.7675 70.6981 39.0996L71.8459 40.3171C71.9552 40.0681 72.0372 39.6807 72.0372 39.2656L72.6384 39.4039C72.5837 39.8467 72.5017 40.3448 72.2558 40.7045L72.9936 41.4516L72.5291 41.922ZM70.1788 41.3963C70.7527 41.3963 71.19 41.1749 71.5179 40.8429L70.0695 39.3486C69.4956 39.57 69.195 39.902 69.195 40.5108C69.2223 41.0642 69.6596 41.3963 70.1788 41.3963ZM69.6323 37.6607C69.6323 37.9374 69.7689 38.1587 70.0422 38.4354L70.3155 38.7398C70.862 38.4908 71.0533 38.1864 71.0533 37.716C71.0533 37.2733 70.8074 37.0242 70.3428 37.0242C69.9055 36.9965 69.6323 37.2733 69.6323 37.6607Z" fill="#012E0D"/>
<path d="M74.9886 41.8113V36.6367H75.6718V38.8781H78.268V36.6367H78.9512V41.8113H78.268V39.4869H75.6718V41.8113H74.9886Z" fill="#012E0D"/>
<path d="M82.5312 40.6768L83.1051 40.8152C82.9684 41.6453 82.2852 41.922 81.52 41.922C80.4816 41.922 79.771 41.1749 79.771 39.819C79.771 38.4631 80.4816 37.6606 81.5747 37.6606C82.5858 37.6606 83.1324 38.3801 83.1324 39.3763C83.1324 39.6253 83.1051 39.8467 83.0504 39.9297H80.4269C80.4816 40.7875 80.8642 41.3963 81.5747 41.3963C82.0666 41.3963 82.3945 41.1749 82.5312 40.6768ZM82.5038 39.3763C82.5038 39.2933 82.5038 39.2656 82.5038 39.1826C82.5038 38.6291 82.1213 38.1587 81.5474 38.1587C80.9188 38.1587 80.5362 38.5738 80.4542 39.3763H82.5038Z" fill="#012E0D"/>
<path d="M86.0838 38.4077C86.0019 38.3801 85.8652 38.3801 85.7559 38.3801C85.1547 38.3801 84.6081 38.9058 84.6081 39.6806V41.8113H83.9522V37.7436H84.4988L84.5808 38.8228C84.7448 38.1033 85.264 37.6053 86.1112 37.6329L86.0838 38.4077Z" fill="#012E0D"/>
<path d="M87.0677 35.9451C87.3409 35.9451 87.5596 36.1664 87.5596 36.4432C87.5596 36.6922 87.3409 36.9136 87.0677 36.9136C86.8217 36.9136 86.6031 36.6922 86.6031 36.4432C86.6031 36.1388 86.8217 35.9451 87.0677 35.9451ZM87.4229 37.7437V41.8114H86.767V37.7437H87.4229Z" fill="#012E0D"/>
<path d="M90.6477 41.6729C90.4017 41.8113 90.1011 41.8943 89.7731 41.8943C89.0626 41.8943 88.68 41.5069 88.68 40.8151V38.2693H88.1061V37.7436H88.68V36.8857L89.3632 36.8027V37.7436H90.5657V38.2693H89.3632V40.7044C89.3632 41.1471 89.5545 41.3408 89.9098 41.3408C90.1831 41.3408 90.347 41.2855 90.5657 41.1195L90.6477 41.6729Z" fill="#012E0D"/>
<path d="M93.9817 40.9257C93.9817 41.2301 94.1183 41.3131 94.2823 41.3131C94.3916 41.3131 94.4463 41.3131 94.5009 41.2854V41.8112C94.4189 41.8389 94.2823 41.8665 94.1457 41.8665C93.7084 41.8665 93.4078 41.6728 93.3531 41.2024C93.1345 41.7005 92.6699 41.8942 92.1507 41.8942C91.4402 41.8942 90.9483 41.4791 90.9483 40.815C90.9483 39.9295 91.6315 39.3761 93.2985 39.4591V38.9057C93.2985 38.3523 92.9432 38.1586 92.4786 38.1586C91.9867 38.1586 91.7134 38.3799 91.6588 38.8504L91.0576 38.7673C91.1122 37.9095 91.8774 37.6328 92.5606 37.6328C93.2712 37.6328 93.9544 37.9095 93.9544 38.8504V40.9257H93.9817ZM93.3258 39.9572C92.1507 39.9295 91.6315 40.1786 91.6315 40.7597C91.6315 41.1194 91.8774 41.4238 92.342 41.4238C92.8066 41.4238 93.3258 41.1194 93.3258 40.6213V39.9572Z" fill="#012E0D"/>
<path d="M97.671 37.9926C97.8623 37.9095 97.9443 37.6605 97.9716 37.3838L98.5728 37.6052C98.5182 37.9926 98.2722 38.2693 97.917 38.3246C98.0536 38.546 98.1083 38.795 98.1083 39.0994C98.1083 40.0402 97.3704 40.5106 96.5232 40.5106C96.3046 40.5106 96.1133 40.483 96.004 40.4276C95.7854 40.5383 95.7034 40.6767 95.7034 40.8704C95.7034 41.1194 95.8673 41.2301 96.168 41.2301H97.0971C97.9989 41.2301 98.4909 41.5898 98.4909 42.337C98.4909 43.3885 97.3977 43.6375 96.3593 43.6375C95.5121 43.6375 94.6376 43.4161 94.6376 42.5583C94.6376 42.0326 95.0202 41.6452 95.676 41.5898C95.3208 41.5345 95.1568 41.2854 95.1568 40.9811C95.1568 40.649 95.3208 40.4 95.7307 40.2893C95.2388 40.0679 94.9655 39.6252 94.9655 39.0441C94.9655 38.1586 95.5941 37.6052 96.5505 37.6052C96.9878 37.6328 97.3704 37.7712 97.671 37.9926ZM96.3866 43.1948C97.2064 43.1948 97.835 43.0287 97.835 42.4476C97.835 42.1156 97.671 41.8389 97.0971 41.8389H96.2773C95.6214 41.8389 95.2661 42.0602 95.2661 42.5307C95.2661 43.0011 95.758 43.1948 96.3866 43.1948ZM96.4959 40.0126C97.0698 40.0126 97.4524 39.7082 97.4524 39.0994C97.4524 38.463 97.0698 38.1586 96.4959 38.1586C95.922 38.1586 95.5667 38.4906 95.5667 39.0994C95.5667 39.6252 95.922 40.0126 96.4959 40.0126Z" fill="#012E0D"/>
<path d="M101.47 40.6768L102.044 40.8152C101.907 41.6453 101.224 41.922 100.458 41.922C99.42 41.922 98.7095 41.1749 98.7095 39.819C98.7095 38.4631 99.42 37.6606 100.513 37.6606C101.524 37.6606 102.071 38.3801 102.071 39.3763C102.071 39.6253 102.044 39.8467 101.989 39.9297H99.3653C99.42 40.7875 99.8026 41.3963 100.513 41.3963C101.005 41.3963 101.333 41.1749 101.47 40.6768ZM101.415 39.3763C101.415 39.2933 101.415 39.2656 101.415 39.1826C101.415 38.6291 101.032 38.1587 100.458 38.1587C99.8299 38.1587 99.4473 38.5738 99.3653 39.3763H101.415Z" fill="#012E0D"/>
<path d="M90.9209 23.5482C90.839 23.5205 90.7023 23.5205 90.593 23.5205C89.9918 23.5205 89.4452 23.9909 89.4452 24.7934V26.8687H88.8167V22.801H89.3632L89.4452 23.9356C89.6092 23.2161 90.1284 22.7734 90.9756 22.801L90.9209 23.5482Z" fill="#012E0D"/>
<path d="M92.588 25.1532C92.8339 25.9556 92.9159 26.4261 92.9159 26.4261H92.9432C92.9432 26.4261 93.0252 25.9556 93.2438 25.1532L93.9544 22.7734H94.6376L93.1892 27.2009C92.8066 28.3907 92.2873 28.6951 91.6315 28.6951C91.4402 28.6951 91.2489 28.6674 91.0849 28.6121L91.1396 28.0587C91.3035 28.1417 91.4675 28.1694 91.6588 28.1694C92.096 28.1694 92.342 27.9203 92.6153 27.1178L91.1396 22.8011H91.8501L92.588 25.1532Z" fill="#012E0D"/>
</g>
<defs>
<clipPath id="clip0_448_1435">
<rect width="103" height="65" fill="white"/>
</clipPath>
</defs>
</svg>
