<svg width="64" height="65" viewBox="0 0 64 65" fill="none" xmlns="http://www.w3.org/2000/svg">
<path fill-rule="evenodd" clip-rule="evenodd" d="M28.0925 0.743115L11.1712 30.049C10.8918 30.5328 10.9045 31.1317 11.204 31.6033L12.4193 33.5166C13.0221 34.4656 14.4161 34.4387 14.9818 33.4671L31.9623 4.30125C32.2415 3.82163 32.2331 3.22703 31.9404 2.75549L30.6659 0.702124C30.0682 -0.26095 28.6593 -0.238509 28.0925 0.743115ZM12.0891 48.7616L34.4031 10.3798C34.9718 9.40159 36.3776 9.38129 36.9743 10.3427L38.2532 12.4031C38.5459 12.8747 38.5543 13.4694 38.275 13.949L17.1222 50.2704C16.8535 50.7318 16.3599 51.0155 15.826 51.0155H13.3859C12.2291 51.0155 11.5077 49.7616 12.0891 48.7616ZM23.9801 48.7636L40.2207 20.731C40.7884 19.7511 42.1958 19.7297 42.7931 20.6919L44.0705 22.75C44.3628 23.2209 44.3716 23.8146 44.0934 24.294L29.0185 50.2685C28.7501 50.7309 28.2559 51.0155 27.7212 51.0155H25.278C24.1223 51.0155 23.4007 49.7636 23.9801 48.7636ZM0.43395 48.7586L7.5835 36.5271C7.85248 36.0669 8.34547 35.7841 8.8785 35.7841H11.1281C12.2792 35.7841 13.0013 37.0271 12.4311 38.0271L5.45592 50.2586C5.18904 50.7266 4.69166 51.0155 4.15291 51.0155H1.72895C0.57067 51.0155 -0.150559 49.7585 0.43395 48.7586ZM38.7432 53.7312L51.9795 31.0129C52.5621 30.0129 51.8408 28.7578 50.6834 28.7578H48.2444C47.7115 28.7578 47.2185 29.0406 46.9495 29.5007L34.8728 50.1578C34.5922 50.6377 34.6001 51.2335 34.8933 51.7059L36.1727 53.7671C36.7691 54.728 38.1739 54.7083 38.7432 53.7312ZM63.7731 30.98L52.4552 50.4703C52.1867 50.9326 51.6926 51.2171 51.158 51.2171H48.7874C47.6327 51.2171 46.911 49.9672 47.4883 48.9672L58.739 29.4768C59.0069 29.0127 59.5021 28.7267 60.0381 28.7267H62.4759C63.6323 28.7267 64.3538 29.98 63.7731 30.98ZM44.7027 63.9551L48.7212 57.135C49.0051 56.6532 48.9974 56.0536 48.7013 55.5793L47.4438 53.5647C46.8496 52.6128 45.4588 52.6265 44.8835 53.5899L40.8409 60.3598C40.5533 60.8414 40.5584 61.4432 40.8543 61.9198L42.1359 63.9847C42.7306 64.9428 44.1302 64.9267 44.7027 63.9551Z" fill="#012E0D"/>
</svg>
